<svg aria-hidden="true" xmlns="http://www.w3.org/2000/svg" xmlns:xlink="http://www.w3.org/1999/xlink"><symbol viewBox="0 0 32 32" id="dark-mode" xmlns="http://www.w3.org/2000/svg">
<path d="M28 17.0533C27.7902 19.3229 26.9385 21.4859 25.5443 23.2891C24.1502 25.0922 22.2713 26.4611 20.1276 27.2354C17.9839 28.0097 15.664 28.1575 13.4393 27.6615C11.2147 27.1654 9.17732 26.0461 7.56562 24.4344C5.95393 22.8227 4.83458 20.7853 4.33853 18.5607C3.84249 16.336 3.99028 14.0161 4.7646 11.8724C5.53893 9.72868 6.90776 7.84982 8.71094 6.45567C10.5141 5.06152 12.6771 4.20974 14.9467 4C13.6179 5.79769 12.9785 8.0126 13.1447 10.2419C13.3109 12.4712 14.2718 14.5667 15.8525 16.1475C17.4332 17.7282 19.5288 18.689 21.7581 18.8553C23.9874 19.0215 26.2023 18.3821 28 17.0533Z" stroke-opacity="0.8" stroke-width="2" stroke-linecap="round" stroke-linejoin="round"/>
</symbol><symbol viewBox="0 0 24 24" id="light-mode" xmlns="http://www.w3.org/2000/svg"><path d="M12 18C8.68629 18 6 15.3137 6 12C6 8.68629 8.68629 6 12 6C15.3137 6 18 8.68629 18 12C18 15.3137 15.3137 18 12 18ZM12 16C14.2091 16 16 14.2091 16 12C16 9.79086 14.2091 8 12 8C9.79086 8 8 9.79086 8 12C8 14.2091 9.79086 16 12 16ZM11 1H13V4H11V1ZM11 20H13V23H11V20ZM3.51472 4.92893L4.92893 3.51472L7.05025 5.63604L5.63604 7.05025L3.51472 4.92893ZM16.9497 18.364L18.364 16.9497L20.4853 19.0711L19.0711 20.4853L16.9497 18.364ZM19.0711 3.51472L20.4853 4.92893L18.364 7.05025L16.9497 5.63604L19.0711 3.51472ZM5.63604 16.9497L7.05025 18.364L4.92893 20.4853L3.51472 19.0711L5.63604 16.9497ZM23 11V13H20V11H23ZM4 11V13H1V11H4Z"/></symbol></svg>